<mxfile host="Electron" agent="Mozilla/5.0 (Macintosh; Intel Mac OS X 10_15_7) AppleWebKit/537.36 (KHTML, like Gecko) draw.io/26.0.16 Chrome/132.0.6834.196 Electron/34.2.0 Safari/537.36" version="26.0.16">
  <diagram name="Page-1" id="eTEe7x4ZIcKYtDVM1YVj">
    <mxGraphModel dx="1283" dy="2065" grid="1" gridSize="10" guides="1" tooltips="1" connect="1" arrows="1" fold="1" page="1" pageScale="1" pageWidth="850" pageHeight="1100" math="0" shadow="0">
      <root>
        <mxCell id="0" />
        <mxCell id="1" parent="0" />
        <mxCell id="8eAeLmn8yFaLi3UXi1aJ-64" style="edgeStyle=orthogonalEdgeStyle;rounded=0;orthogonalLoop=1;jettySize=auto;html=1;startArrow=oval;startFill=1;endArrow=oval;endFill=1;" parent="1" source="8eAeLmn8yFaLi3UXi1aJ-1" target="8eAeLmn8yFaLi3UXi1aJ-60" edge="1">
          <mxGeometry relative="1" as="geometry" />
        </mxCell>
        <mxCell id="8eAeLmn8yFaLi3UXi1aJ-73" style="edgeStyle=orthogonalEdgeStyle;rounded=0;orthogonalLoop=1;jettySize=auto;html=1;entryX=0;entryY=0.5;entryDx=0;entryDy=0;dashed=1;startArrow=oval;startFill=1;" parent="1" source="8eAeLmn8yFaLi3UXi1aJ-1" target="8eAeLmn8yFaLi3UXi1aJ-71" edge="1">
          <mxGeometry relative="1" as="geometry">
            <Array as="points">
              <mxPoint x="960" y="160" />
              <mxPoint x="960" y="160" />
            </Array>
          </mxGeometry>
        </mxCell>
        <mxCell id="8eAeLmn8yFaLi3UXi1aJ-1" value="Base infractcuture | Validtors + Collators" style="swimlane;whiteSpace=wrap;html=1;" parent="1" vertex="1">
          <mxGeometry x="50" y="69" width="750" height="310" as="geometry" />
        </mxCell>
        <mxCell id="8eAeLmn8yFaLi3UXi1aJ-5" value="AVG ~ TCP" style="edgeStyle=orthogonalEdgeStyle;rounded=0;orthogonalLoop=1;jettySize=auto;html=1;entryX=0;entryY=0.5;entryDx=0;entryDy=0;startArrow=classic;startFill=1;" parent="8eAeLmn8yFaLi3UXi1aJ-1" source="8eAeLmn8yFaLi3UXi1aJ-2" target="8eAeLmn8yFaLi3UXi1aJ-3" edge="1">
          <mxGeometry x="-0.0143" y="20" relative="1" as="geometry">
            <mxPoint as="offset" />
          </mxGeometry>
        </mxCell>
        <mxCell id="8eAeLmn8yFaLi3UXi1aJ-11" style="edgeStyle=orthogonalEdgeStyle;rounded=0;orthogonalLoop=1;jettySize=auto;html=1;startArrow=classic;startFill=1;" parent="8eAeLmn8yFaLi3UXi1aJ-1" source="8eAeLmn8yFaLi3UXi1aJ-2" target="8eAeLmn8yFaLi3UXi1aJ-10" edge="1">
          <mxGeometry relative="1" as="geometry" />
        </mxCell>
        <mxCell id="8eAeLmn8yFaLi3UXi1aJ-2" value="qf-node:&lt;br&gt;Validator + Collator&amp;nbsp;1" style="shape=process;whiteSpace=wrap;html=1;backgroundOutline=1;" parent="8eAeLmn8yFaLi3UXi1aJ-1" vertex="1">
          <mxGeometry x="70" y="80" width="120" height="60" as="geometry" />
        </mxCell>
        <mxCell id="8eAeLmn8yFaLi3UXi1aJ-6" style="edgeStyle=orthogonalEdgeStyle;rounded=0;orthogonalLoop=1;jettySize=auto;html=1;startArrow=classic;startFill=1;" parent="8eAeLmn8yFaLi3UXi1aJ-1" source="8eAeLmn8yFaLi3UXi1aJ-3" target="8eAeLmn8yFaLi3UXi1aJ-4" edge="1">
          <mxGeometry relative="1" as="geometry" />
        </mxCell>
        <mxCell id="8eAeLmn8yFaLi3UXi1aJ-15" value="AVG ~ TCP" style="edgeLabel;html=1;align=center;verticalAlign=middle;resizable=0;points=[];" parent="8eAeLmn8yFaLi3UXi1aJ-6" vertex="1" connectable="0">
          <mxGeometry x="-0.3927" y="1" relative="1" as="geometry">
            <mxPoint x="20" y="-19" as="offset" />
          </mxGeometry>
        </mxCell>
        <mxCell id="8eAeLmn8yFaLi3UXi1aJ-3" value="qf-node:&lt;br&gt;Validator + Collator&amp;nbsp;2" style="shape=process;whiteSpace=wrap;html=1;backgroundOutline=1;" parent="8eAeLmn8yFaLi3UXi1aJ-1" vertex="1">
          <mxGeometry x="320" y="80" width="120" height="60" as="geometry" />
        </mxCell>
        <mxCell id="8eAeLmn8yFaLi3UXi1aJ-4" value="qf-node:&lt;br&gt;Validator + Collator 3" style="shape=process;whiteSpace=wrap;html=1;backgroundOutline=1;" parent="8eAeLmn8yFaLi3UXi1aJ-1" vertex="1">
          <mxGeometry x="580" y="80" width="120" height="60" as="geometry" />
        </mxCell>
        <mxCell id="8eAeLmn8yFaLi3UXi1aJ-10" value="data" style="shape=cylinder3;whiteSpace=wrap;html=1;boundedLbl=1;backgroundOutline=1;size=15;" parent="8eAeLmn8yFaLi3UXi1aJ-1" vertex="1">
          <mxGeometry x="100" y="181" width="60" height="80" as="geometry" />
        </mxCell>
        <mxCell id="8eAeLmn8yFaLi3UXi1aJ-12" value="data" style="shape=cylinder3;whiteSpace=wrap;html=1;boundedLbl=1;backgroundOutline=1;size=15;" parent="8eAeLmn8yFaLi3UXi1aJ-1" vertex="1">
          <mxGeometry x="350" y="181" width="60" height="80" as="geometry" />
        </mxCell>
        <mxCell id="8eAeLmn8yFaLi3UXi1aJ-13" value="data" style="shape=cylinder3;whiteSpace=wrap;html=1;boundedLbl=1;backgroundOutline=1;size=15;" parent="8eAeLmn8yFaLi3UXi1aJ-1" vertex="1">
          <mxGeometry x="610" y="181" width="60" height="80" as="geometry" />
        </mxCell>
        <mxCell id="8eAeLmn8yFaLi3UXi1aJ-14" style="edgeStyle=orthogonalEdgeStyle;rounded=0;orthogonalLoop=1;jettySize=auto;html=1;entryX=0.5;entryY=0;entryDx=0;entryDy=0;entryPerimeter=0;startArrow=classic;startFill=1;" parent="8eAeLmn8yFaLi3UXi1aJ-1" source="8eAeLmn8yFaLi3UXi1aJ-4" target="8eAeLmn8yFaLi3UXi1aJ-13" edge="1">
          <mxGeometry relative="1" as="geometry" />
        </mxCell>
        <mxCell id="8eAeLmn8yFaLi3UXi1aJ-16" style="edgeStyle=orthogonalEdgeStyle;rounded=0;orthogonalLoop=1;jettySize=auto;html=1;entryX=0.5;entryY=0;entryDx=0;entryDy=0;entryPerimeter=0;startArrow=classic;startFill=1;" parent="8eAeLmn8yFaLi3UXi1aJ-1" source="8eAeLmn8yFaLi3UXi1aJ-3" target="8eAeLmn8yFaLi3UXi1aJ-12" edge="1">
          <mxGeometry relative="1" as="geometry" />
        </mxCell>
        <mxCell id="8eAeLmn8yFaLi3UXi1aJ-51" style="edgeStyle=orthogonalEdgeStyle;rounded=0;orthogonalLoop=1;jettySize=auto;html=1;startArrow=classic;startFill=1;" parent="1" source="8eAeLmn8yFaLi3UXi1aJ-17" target="8eAeLmn8yFaLi3UXi1aJ-40" edge="1">
          <mxGeometry relative="1" as="geometry" />
        </mxCell>
        <mxCell id="8eAeLmn8yFaLi3UXi1aJ-52" style="edgeStyle=orthogonalEdgeStyle;rounded=0;orthogonalLoop=1;jettySize=auto;html=1;startArrow=classic;startFill=1;" parent="1" source="8eAeLmn8yFaLi3UXi1aJ-17" target="8eAeLmn8yFaLi3UXi1aJ-37" edge="1">
          <mxGeometry relative="1" as="geometry" />
        </mxCell>
        <mxCell id="8eAeLmn8yFaLi3UXi1aJ-17" value="CloudFlare CDN (W3)" style="shape=process;whiteSpace=wrap;html=1;backgroundOutline=1;" parent="1" vertex="1">
          <mxGeometry x="355" y="650" width="170" height="60" as="geometry" />
        </mxCell>
        <mxCell id="8eAeLmn8yFaLi3UXi1aJ-18" value="Anycast DNS / IP Balancer&amp;nbsp;" style="shape=process;whiteSpace=wrap;html=1;backgroundOutline=1;" parent="1" vertex="1">
          <mxGeometry x="355" y="710" width="170" height="60" as="geometry" />
        </mxCell>
        <mxCell id="8eAeLmn8yFaLi3UXi1aJ-19" value="+ Anycast" style="text;html=1;align=center;verticalAlign=middle;whiteSpace=wrap;rounded=0;" parent="1" vertex="1">
          <mxGeometry x="540" y="610" width="60" height="30" as="geometry" />
        </mxCell>
        <mxCell id="8eAeLmn8yFaLi3UXi1aJ-20" value="+ ACL" style="text;html=1;align=center;verticalAlign=middle;whiteSpace=wrap;rounded=0;" parent="1" vertex="1">
          <mxGeometry x="230" y="610" width="60" height="30" as="geometry" />
        </mxCell>
        <mxCell id="8eAeLmn8yFaLi3UXi1aJ-34" value="Base infractcuture | RPC" style="swimlane;whiteSpace=wrap;html=1;" parent="1" vertex="1">
          <mxGeometry x="50" y="420" width="620" height="190" as="geometry" />
        </mxCell>
        <mxCell id="8eAeLmn8yFaLi3UXi1aJ-37" value="qf-node: RPC Node 1" style="shape=process;whiteSpace=wrap;html=1;backgroundOutline=1;" parent="8eAeLmn8yFaLi3UXi1aJ-34" vertex="1">
          <mxGeometry x="70" y="80" width="120" height="60" as="geometry" />
        </mxCell>
        <mxCell id="8eAeLmn8yFaLi3UXi1aJ-99" style="edgeStyle=orthogonalEdgeStyle;rounded=0;orthogonalLoop=1;jettySize=auto;html=1;" parent="8eAeLmn8yFaLi3UXi1aJ-34" source="8eAeLmn8yFaLi3UXi1aJ-40" target="8eAeLmn8yFaLi3UXi1aJ-98" edge="1">
          <mxGeometry relative="1" as="geometry">
            <Array as="points">
              <mxPoint x="440" y="150" />
              <mxPoint x="490" y="150" />
              <mxPoint x="490" y="130" />
            </Array>
          </mxGeometry>
        </mxCell>
        <mxCell id="8eAeLmn8yFaLi3UXi1aJ-40" value="qf-node:&amp;nbsp;RPC Node 2" style="shape=process;whiteSpace=wrap;html=1;backgroundOutline=1;" parent="8eAeLmn8yFaLi3UXi1aJ-34" vertex="1">
          <mxGeometry x="330" y="80" width="120" height="60" as="geometry" />
        </mxCell>
        <mxCell id="8eAeLmn8yFaLi3UXi1aJ-98" value="data" style="shape=cylinder3;whiteSpace=wrap;html=1;boundedLbl=1;backgroundOutline=1;size=15;" parent="8eAeLmn8yFaLi3UXi1aJ-34" vertex="1">
          <mxGeometry x="530" y="90" width="60" height="80" as="geometry" />
        </mxCell>
        <mxCell id="8eAeLmn8yFaLi3UXi1aJ-47" style="edgeStyle=orthogonalEdgeStyle;rounded=0;orthogonalLoop=1;jettySize=auto;html=1;entryX=0.75;entryY=1;entryDx=0;entryDy=0;startArrow=classic;startFill=1;" parent="1" source="8eAeLmn8yFaLi3UXi1aJ-37" target="8eAeLmn8yFaLi3UXi1aJ-2" edge="1">
          <mxGeometry relative="1" as="geometry">
            <Array as="points">
              <mxPoint x="180" y="480" />
              <mxPoint x="260" y="480" />
              <mxPoint x="260" y="250" />
              <mxPoint x="210" y="250" />
            </Array>
          </mxGeometry>
        </mxCell>
        <mxCell id="8eAeLmn8yFaLi3UXi1aJ-54" value="TCP/IP" style="edgeLabel;html=1;align=center;verticalAlign=middle;resizable=0;points=[];" parent="8eAeLmn8yFaLi3UXi1aJ-47" vertex="1" connectable="0">
          <mxGeometry x="-0.1158" y="-2" relative="1" as="geometry">
            <mxPoint x="28" y="-4" as="offset" />
          </mxGeometry>
        </mxCell>
        <mxCell id="8eAeLmn8yFaLi3UXi1aJ-48" style="edgeStyle=orthogonalEdgeStyle;rounded=0;orthogonalLoop=1;jettySize=auto;html=1;entryX=0.75;entryY=1;entryDx=0;entryDy=0;startArrow=classic;startFill=1;" parent="1" source="8eAeLmn8yFaLi3UXi1aJ-40" target="8eAeLmn8yFaLi3UXi1aJ-3" edge="1">
          <mxGeometry relative="1" as="geometry">
            <Array as="points">
              <mxPoint x="440" y="480" />
              <mxPoint x="520" y="480" />
              <mxPoint x="520" y="250" />
              <mxPoint x="460" y="250" />
            </Array>
          </mxGeometry>
        </mxCell>
        <mxCell id="8eAeLmn8yFaLi3UXi1aJ-55" value="TCP/IP" style="edgeLabel;html=1;align=center;verticalAlign=middle;resizable=0;points=[];" parent="8eAeLmn8yFaLi3UXi1aJ-48" vertex="1" connectable="0">
          <mxGeometry x="-0.1308" y="-2" relative="1" as="geometry">
            <mxPoint x="-32" y="-3" as="offset" />
          </mxGeometry>
        </mxCell>
        <mxCell id="8eAeLmn8yFaLi3UXi1aJ-57" value="VM Backup" style="shape=cylinder3;whiteSpace=wrap;html=1;boundedLbl=1;backgroundOutline=1;size=15;" parent="1" vertex="1">
          <mxGeometry x="950" y="299" width="60" height="80" as="geometry" />
        </mxCell>
        <mxCell id="8eAeLmn8yFaLi3UXi1aJ-58" style="edgeStyle=orthogonalEdgeStyle;rounded=0;orthogonalLoop=1;jettySize=auto;html=1;entryX=0;entryY=0.5;entryDx=0;entryDy=0;entryPerimeter=0;dashed=1;startArrow=oval;startFill=1;exitX=1;exitY=0.75;exitDx=0;exitDy=0;" parent="1" source="8eAeLmn8yFaLi3UXi1aJ-1" target="8eAeLmn8yFaLi3UXi1aJ-57" edge="1">
          <mxGeometry relative="1" as="geometry" />
        </mxCell>
        <mxCell id="8eAeLmn8yFaLi3UXi1aJ-68" value="perodic backup" style="edgeLabel;html=1;align=center;verticalAlign=middle;resizable=0;points=[];" parent="8eAeLmn8yFaLi3UXi1aJ-58" vertex="1" connectable="0">
          <mxGeometry x="0.2315" y="5" relative="1" as="geometry">
            <mxPoint x="-30" y="-73" as="offset" />
          </mxGeometry>
        </mxCell>
        <mxCell id="8eAeLmn8yFaLi3UXi1aJ-59" value="PolkaDot" style="shape=process;whiteSpace=wrap;html=1;backgroundOutline=1;" parent="1" vertex="1">
          <mxGeometry x="365" y="-240" width="120" height="60" as="geometry" />
        </mxCell>
        <mxCell id="8eAeLmn8yFaLi3UXi1aJ-61" style="edgeStyle=orthogonalEdgeStyle;rounded=0;orthogonalLoop=1;jettySize=auto;html=1;startArrow=classic;startFill=1;" parent="1" source="8eAeLmn8yFaLi3UXi1aJ-60" target="8eAeLmn8yFaLi3UXi1aJ-59" edge="1">
          <mxGeometry relative="1" as="geometry" />
        </mxCell>
        <mxCell id="8eAeLmn8yFaLi3UXi1aJ-60" value="Parachain" style="shape=process;whiteSpace=wrap;html=1;backgroundOutline=1;" parent="1" vertex="1">
          <mxGeometry x="365" y="-100" width="120" height="60" as="geometry" />
        </mxCell>
        <mxCell id="8eAeLmn8yFaLi3UXi1aJ-66" style="edgeStyle=orthogonalEdgeStyle;rounded=0;orthogonalLoop=1;jettySize=auto;html=1;startArrow=classic;startFill=1;" parent="1" source="8eAeLmn8yFaLi3UXi1aJ-65" target="8eAeLmn8yFaLi3UXi1aJ-57" edge="1">
          <mxGeometry relative="1" as="geometry">
            <Array as="points">
              <mxPoint x="1110" y="300" />
              <mxPoint x="1110" y="339" />
            </Array>
          </mxGeometry>
        </mxCell>
        <mxCell id="8eAeLmn8yFaLi3UXi1aJ-67" value="Manual Restore" style="edgeLabel;html=1;align=center;verticalAlign=middle;resizable=0;points=[];rotation=0;" parent="8eAeLmn8yFaLi3UXi1aJ-66" vertex="1" connectable="0">
          <mxGeometry x="-0.2611" y="2" relative="1" as="geometry">
            <mxPoint x="18" y="58" as="offset" />
          </mxGeometry>
        </mxCell>
        <mxCell id="8eAeLmn8yFaLi3UXi1aJ-80" style="edgeStyle=orthogonalEdgeStyle;rounded=0;orthogonalLoop=1;jettySize=auto;html=1;entryX=0.5;entryY=1;entryDx=0;entryDy=0;dashed=1;" parent="1" source="8eAeLmn8yFaLi3UXi1aJ-65" target="8eAeLmn8yFaLi3UXi1aJ-79" edge="1">
          <mxGeometry relative="1" as="geometry" />
        </mxCell>
        <mxCell id="8eAeLmn8yFaLi3UXi1aJ-65" value="Admin" style="shape=umlActor;verticalLabelPosition=bottom;verticalAlign=top;html=1;outlineConnect=0;" parent="1" vertex="1">
          <mxGeometry x="1210" y="270" width="30" height="60" as="geometry" />
        </mxCell>
        <mxCell id="8eAeLmn8yFaLi3UXi1aJ-70" style="edgeStyle=orthogonalEdgeStyle;rounded=0;orthogonalLoop=1;jettySize=auto;html=1;startArrow=classic;startFill=1;" parent="1" source="8eAeLmn8yFaLi3UXi1aJ-69" target="8eAeLmn8yFaLi3UXi1aJ-18" edge="1">
          <mxGeometry relative="1" as="geometry" />
        </mxCell>
        <mxCell id="8eAeLmn8yFaLi3UXi1aJ-69" value="dApp" style="shape=umlActor;verticalLabelPosition=bottom;verticalAlign=top;html=1;outlineConnect=0;" parent="1" vertex="1">
          <mxGeometry x="425" y="1000" width="30" height="60" as="geometry" />
        </mxCell>
        <mxCell id="8eAeLmn8yFaLi3UXi1aJ-71" value="VM: Monitoring &amp;amp; Alerting" style="shape=process;whiteSpace=wrap;html=1;backgroundOutline=1;" parent="1" vertex="1">
          <mxGeometry x="1020" y="130" width="120" height="60" as="geometry" />
        </mxCell>
        <mxCell id="8eAeLmn8yFaLi3UXi1aJ-74" style="edgeStyle=orthogonalEdgeStyle;rounded=0;orthogonalLoop=1;jettySize=auto;html=1;entryX=0.5;entryY=0;entryDx=0;entryDy=0;entryPerimeter=0;startArrow=classic;startFill=1;" parent="1" source="8eAeLmn8yFaLi3UXi1aJ-71" target="8eAeLmn8yFaLi3UXi1aJ-65" edge="1">
          <mxGeometry relative="1" as="geometry" />
        </mxCell>
        <mxCell id="8eAeLmn8yFaLi3UXi1aJ-75" style="edgeStyle=orthogonalEdgeStyle;rounded=0;orthogonalLoop=1;jettySize=auto;html=1;entryX=0;entryY=0.75;entryDx=0;entryDy=0;" parent="1" source="8eAeLmn8yFaLi3UXi1aJ-40" target="8eAeLmn8yFaLi3UXi1aJ-4" edge="1">
          <mxGeometry relative="1" as="geometry" />
        </mxCell>
        <mxCell id="8eAeLmn8yFaLi3UXi1aJ-76" style="edgeStyle=orthogonalEdgeStyle;rounded=0;orthogonalLoop=1;jettySize=auto;html=1;entryX=0;entryY=0.5;entryDx=0;entryDy=0;" parent="1" source="8eAeLmn8yFaLi3UXi1aJ-37" target="8eAeLmn8yFaLi3UXi1aJ-2" edge="1">
          <mxGeometry relative="1" as="geometry">
            <Array as="points">
              <mxPoint x="140" y="354" />
              <mxPoint x="100" y="354" />
              <mxPoint x="100" y="179" />
            </Array>
          </mxGeometry>
        </mxCell>
        <mxCell id="8eAeLmn8yFaLi3UXi1aJ-77" style="edgeStyle=orthogonalEdgeStyle;rounded=0;orthogonalLoop=1;jettySize=auto;html=1;entryX=0.25;entryY=1;entryDx=0;entryDy=0;" parent="1" source="8eAeLmn8yFaLi3UXi1aJ-37" target="8eAeLmn8yFaLi3UXi1aJ-3" edge="1">
          <mxGeometry relative="1" as="geometry">
            <Array as="points">
              <mxPoint x="350" y="530" />
              <mxPoint x="350" y="250" />
              <mxPoint x="400" y="250" />
            </Array>
          </mxGeometry>
        </mxCell>
        <mxCell id="8eAeLmn8yFaLi3UXi1aJ-79" value="Reaction, Instructions, L1 - L2 support?" style="shape=process;whiteSpace=wrap;html=1;backgroundOutline=1;" parent="1" vertex="1">
          <mxGeometry x="1275" y="140" width="120" height="60" as="geometry" />
        </mxCell>
        <mxCell id="8eAeLmn8yFaLi3UXi1aJ-82" style="edgeStyle=orthogonalEdgeStyle;rounded=0;orthogonalLoop=1;jettySize=auto;html=1;entryX=0.75;entryY=0;entryDx=0;entryDy=0;dashed=1;startArrow=oval;startFill=1;endArrow=oval;endFill=1;" parent="1" source="8eAeLmn8yFaLi3UXi1aJ-81" target="8eAeLmn8yFaLi3UXi1aJ-1" edge="1">
          <mxGeometry relative="1" as="geometry" />
        </mxCell>
        <mxCell id="8eAeLmn8yFaLi3UXi1aJ-81" value="&lt;h1 style=&quot;margin-top: 0px;&quot;&gt;NOTICE:&lt;/h1&gt;&lt;p&gt;(1) No shared CPU&lt;br&gt;(2) No shared NVME&lt;br&gt;(3) No shared Netwoking&lt;br&gt;(3) No extra NATing&lt;br&gt;Ex: AWS c5&lt;/p&gt;" style="text;html=1;whiteSpace=wrap;overflow=hidden;rounded=0;" parent="1" vertex="1">
          <mxGeometry x="845" y="-60" width="240" height="120" as="geometry" />
        </mxCell>
        <mxCell id="8eAeLmn8yFaLi3UXi1aJ-91" style="edgeStyle=orthogonalEdgeStyle;rounded=0;orthogonalLoop=1;jettySize=auto;html=1;entryX=1;entryY=0.5;entryDx=0;entryDy=0;dashed=1;startArrow=classic;startFill=1;" parent="1" source="8eAeLmn8yFaLi3UXi1aJ-83" target="8eAeLmn8yFaLi3UXi1aJ-17" edge="1">
          <mxGeometry relative="1" as="geometry" />
        </mxCell>
        <mxCell id="8eAeLmn8yFaLi3UXi1aJ-116" style="edgeStyle=orthogonalEdgeStyle;rounded=0;orthogonalLoop=1;jettySize=auto;html=1;entryX=0.5;entryY=1;entryDx=0;entryDy=0;" parent="1" source="8eAeLmn8yFaLi3UXi1aJ-83" target="8eAeLmn8yFaLi3UXi1aJ-71" edge="1">
          <mxGeometry relative="1" as="geometry" />
        </mxCell>
        <mxCell id="8eAeLmn8yFaLi3UXi1aJ-83" value="Base infractcuture | Archives" style="swimlane;whiteSpace=wrap;html=1;" parent="1" vertex="1">
          <mxGeometry x="840" y="520" width="440" height="290" as="geometry" />
        </mxCell>
        <mxCell id="8eAeLmn8yFaLi3UXi1aJ-84" value="qf-node: Arch node 1" style="shape=process;whiteSpace=wrap;html=1;backgroundOutline=1;" parent="8eAeLmn8yFaLi3UXi1aJ-83" vertex="1">
          <mxGeometry x="120" y="70" width="120" height="60" as="geometry" />
        </mxCell>
        <mxCell id="8eAeLmn8yFaLi3UXi1aJ-89" style="edgeStyle=orthogonalEdgeStyle;rounded=0;orthogonalLoop=1;jettySize=auto;html=1;" parent="8eAeLmn8yFaLi3UXi1aJ-83" source="8eAeLmn8yFaLi3UXi1aJ-85" target="8eAeLmn8yFaLi3UXi1aJ-88" edge="1">
          <mxGeometry relative="1" as="geometry" />
        </mxCell>
        <mxCell id="8eAeLmn8yFaLi3UXi1aJ-85" value="qf-node: Arch node 2" style="shape=process;whiteSpace=wrap;html=1;backgroundOutline=1;" parent="8eAeLmn8yFaLi3UXi1aJ-83" vertex="1">
          <mxGeometry x="295" y="70" width="120" height="60" as="geometry" />
        </mxCell>
        <mxCell id="8eAeLmn8yFaLi3UXi1aJ-86" value="data" style="shape=cylinder3;whiteSpace=wrap;html=1;boundedLbl=1;backgroundOutline=1;size=15;" parent="8eAeLmn8yFaLi3UXi1aJ-83" vertex="1">
          <mxGeometry x="150" y="170" width="60" height="80" as="geometry" />
        </mxCell>
        <mxCell id="8eAeLmn8yFaLi3UXi1aJ-87" style="edgeStyle=orthogonalEdgeStyle;rounded=0;orthogonalLoop=1;jettySize=auto;html=1;entryX=0.5;entryY=0;entryDx=0;entryDy=0;entryPerimeter=0;" parent="8eAeLmn8yFaLi3UXi1aJ-83" source="8eAeLmn8yFaLi3UXi1aJ-84" target="8eAeLmn8yFaLi3UXi1aJ-86" edge="1">
          <mxGeometry relative="1" as="geometry" />
        </mxCell>
        <mxCell id="8eAeLmn8yFaLi3UXi1aJ-88" value="data" style="shape=cylinder3;whiteSpace=wrap;html=1;boundedLbl=1;backgroundOutline=1;size=15;" parent="8eAeLmn8yFaLi3UXi1aJ-83" vertex="1">
          <mxGeometry x="325" y="170" width="60" height="80" as="geometry" />
        </mxCell>
        <mxCell id="8eAeLmn8yFaLi3UXi1aJ-131" style="edgeStyle=orthogonalEdgeStyle;rounded=0;orthogonalLoop=1;jettySize=auto;html=1;entryX=0;entryY=0.5;entryDx=0;entryDy=0;" parent="8eAeLmn8yFaLi3UXi1aJ-83" source="8eAeLmn8yFaLi3UXi1aJ-92" target="8eAeLmn8yFaLi3UXi1aJ-84" edge="1">
          <mxGeometry relative="1" as="geometry" />
        </mxCell>
        <mxCell id="8eAeLmn8yFaLi3UXi1aJ-132" style="edgeStyle=orthogonalEdgeStyle;rounded=0;orthogonalLoop=1;jettySize=auto;html=1;entryX=0.5;entryY=0;entryDx=0;entryDy=0;" parent="8eAeLmn8yFaLi3UXi1aJ-83" source="8eAeLmn8yFaLi3UXi1aJ-92" target="8eAeLmn8yFaLi3UXi1aJ-85" edge="1">
          <mxGeometry relative="1" as="geometry">
            <Array as="points">
              <mxPoint x="60" y="50" />
              <mxPoint x="355" y="50" />
            </Array>
          </mxGeometry>
        </mxCell>
        <mxCell id="8eAeLmn8yFaLi3UXi1aJ-92" value="RR Proxy" style="shape=process;whiteSpace=wrap;html=1;backgroundOutline=1;rotation=-90;" parent="8eAeLmn8yFaLi3UXi1aJ-83" vertex="1">
          <mxGeometry x="-20" y="115" width="120" height="60" as="geometry" />
        </mxCell>
        <mxCell id="8eAeLmn8yFaLi3UXi1aJ-115" style="edgeStyle=orthogonalEdgeStyle;rounded=0;orthogonalLoop=1;jettySize=auto;html=1;entryX=0;entryY=0.75;entryDx=0;entryDy=0;" parent="1" source="8eAeLmn8yFaLi3UXi1aJ-95" target="8eAeLmn8yFaLi3UXi1aJ-71" edge="1">
          <mxGeometry relative="1" as="geometry">
            <Array as="points">
              <mxPoint x="740" y="430" />
              <mxPoint x="920" y="430" />
              <mxPoint x="920" y="175" />
            </Array>
          </mxGeometry>
        </mxCell>
        <mxCell id="8eAeLmn8yFaLi3UXi1aJ-137" style="edgeStyle=orthogonalEdgeStyle;rounded=0;orthogonalLoop=1;jettySize=auto;html=1;entryX=0.75;entryY=1;entryDx=0;entryDy=0;startArrow=classic;startFill=1;exitX=1;exitY=0.25;exitDx=0;exitDy=0;" parent="1" source="8eAeLmn8yFaLi3UXi1aJ-95" target="8eAeLmn8yFaLi3UXi1aJ-71" edge="1">
          <mxGeometry relative="1" as="geometry">
            <Array as="points">
              <mxPoint x="1600" y="939" />
              <mxPoint x="1600" y="230" />
              <mxPoint x="1110" y="230" />
            </Array>
          </mxGeometry>
        </mxCell>
        <mxCell id="8eAeLmn8yFaLi3UXi1aJ-95" value="Base infractcuture | Tools" style="swimlane;whiteSpace=wrap;html=1;" parent="1" vertex="1">
          <mxGeometry x="580" y="879" width="770" height="240" as="geometry" />
        </mxCell>
        <mxCell id="8eAeLmn8yFaLi3UXi1aJ-111" style="edgeStyle=orthogonalEdgeStyle;rounded=0;orthogonalLoop=1;jettySize=auto;html=1;exitX=0.5;exitY=0;exitDx=0;exitDy=0;exitPerimeter=0;" parent="8eAeLmn8yFaLi3UXi1aJ-95" source="8eAeLmn8yFaLi3UXi1aJ-102" target="8eAeLmn8yFaLi3UXi1aJ-110" edge="1">
          <mxGeometry relative="1" as="geometry">
            <Array as="points">
              <mxPoint x="680" y="50" />
              <mxPoint x="370" y="50" />
              <mxPoint x="370" y="110" />
            </Array>
          </mxGeometry>
        </mxCell>
        <mxCell id="8eAeLmn8yFaLi3UXi1aJ-96" value="VM 1:&amp;nbsp;qf-suid" style="shape=process;whiteSpace=wrap;html=1;backgroundOutline=1;" parent="8eAeLmn8yFaLi3UXi1aJ-95" vertex="1">
          <mxGeometry x="430" y="80" width="120" height="60" as="geometry" />
        </mxCell>
        <mxCell id="8eAeLmn8yFaLi3UXi1aJ-102" value="VMs: PG Part. Cluster (Master -&amp;gt; Slave)" style="shape=cylinder3;whiteSpace=wrap;html=1;boundedLbl=1;backgroundOutline=1;size=15;" parent="8eAeLmn8yFaLi3UXi1aJ-95" vertex="1">
          <mxGeometry x="630" y="70" width="100" height="80" as="geometry" />
        </mxCell>
        <mxCell id="8eAeLmn8yFaLi3UXi1aJ-103" style="edgeStyle=orthogonalEdgeStyle;rounded=0;orthogonalLoop=1;jettySize=auto;html=1;entryX=0;entryY=0.5;entryDx=0;entryDy=0;entryPerimeter=0;startArrow=classic;startFill=1;" parent="8eAeLmn8yFaLi3UXi1aJ-95" source="8eAeLmn8yFaLi3UXi1aJ-96" target="8eAeLmn8yFaLi3UXi1aJ-102" edge="1">
          <mxGeometry relative="1" as="geometry" />
        </mxCell>
        <mxCell id="8eAeLmn8yFaLi3UXi1aJ-113" style="edgeStyle=orthogonalEdgeStyle;rounded=0;orthogonalLoop=1;jettySize=auto;html=1;entryX=1;entryY=0.5;entryDx=0;entryDy=0;exitX=0.855;exitY=1;exitDx=0;exitDy=-4.35;exitPerimeter=0;" parent="8eAeLmn8yFaLi3UXi1aJ-95" source="8eAeLmn8yFaLi3UXi1aJ-102" target="8eAeLmn8yFaLi3UXi1aJ-112" edge="1">
          <mxGeometry relative="1" as="geometry">
            <Array as="points">
              <mxPoint x="716" y="231" />
              <mxPoint x="380" y="231" />
              <mxPoint x="380" y="180" />
            </Array>
          </mxGeometry>
        </mxCell>
        <mxCell id="8eAeLmn8yFaLi3UXi1aJ-106" value="VM 1:&amp;nbsp;qf-suid" style="shape=process;whiteSpace=wrap;html=1;backgroundOutline=1;" parent="8eAeLmn8yFaLi3UXi1aJ-95" vertex="1">
          <mxGeometry x="430" y="160" width="120" height="60" as="geometry" />
        </mxCell>
        <mxCell id="8eAeLmn8yFaLi3UXi1aJ-107" style="edgeStyle=orthogonalEdgeStyle;rounded=0;orthogonalLoop=1;jettySize=auto;html=1;entryX=0.5;entryY=1;entryDx=0;entryDy=0;entryPerimeter=0;startArrow=classic;startFill=1;" parent="8eAeLmn8yFaLi3UXi1aJ-95" source="8eAeLmn8yFaLi3UXi1aJ-106" target="8eAeLmn8yFaLi3UXi1aJ-102" edge="1">
          <mxGeometry relative="1" as="geometry" />
        </mxCell>
        <mxCell id="8eAeLmn8yFaLi3UXi1aJ-110" value="VM 1: gql-server" style="shape=process;whiteSpace=wrap;html=1;backgroundOutline=1;" parent="8eAeLmn8yFaLi3UXi1aJ-95" vertex="1">
          <mxGeometry x="110" y="80" width="120" height="60" as="geometry" />
        </mxCell>
        <mxCell id="8eAeLmn8yFaLi3UXi1aJ-112" value="VM 2:&amp;nbsp;gql-server" style="shape=process;whiteSpace=wrap;html=1;backgroundOutline=1;" parent="8eAeLmn8yFaLi3UXi1aJ-95" vertex="1">
          <mxGeometry x="110" y="150" width="120" height="60" as="geometry" />
        </mxCell>
        <mxCell id="8eAeLmn8yFaLi3UXi1aJ-119" value="+ Anycast" style="text;html=1;align=center;verticalAlign=middle;whiteSpace=wrap;rounded=0;" parent="8eAeLmn8yFaLi3UXi1aJ-95" vertex="1">
          <mxGeometry x="30" y="70" width="60" height="30" as="geometry" />
        </mxCell>
        <mxCell id="8eAeLmn8yFaLi3UXi1aJ-120" value="+ ACL" style="text;html=1;align=center;verticalAlign=middle;whiteSpace=wrap;rounded=0;" parent="8eAeLmn8yFaLi3UXi1aJ-95" vertex="1">
          <mxGeometry x="20" y="50" width="60" height="30" as="geometry" />
        </mxCell>
        <mxCell id="8eAeLmn8yFaLi3UXi1aJ-100" style="edgeStyle=orthogonalEdgeStyle;rounded=0;orthogonalLoop=1;jettySize=auto;html=1;entryX=0.3;entryY=0.017;entryDx=0;entryDy=0;entryPerimeter=0;exitX=0.5;exitY=0;exitDx=0;exitDy=0;" parent="1" source="8eAeLmn8yFaLi3UXi1aJ-96" target="8eAeLmn8yFaLi3UXi1aJ-92" edge="1">
          <mxGeometry relative="1" as="geometry">
            <Array as="points">
              <mxPoint x="1065" y="959" />
              <mxPoint x="1065" y="840" />
              <mxPoint x="760" y="840" />
              <mxPoint x="760" y="689" />
            </Array>
          </mxGeometry>
        </mxCell>
        <mxCell id="8eAeLmn8yFaLi3UXi1aJ-101" value="TCP/IP" style="edgeLabel;html=1;align=center;verticalAlign=middle;resizable=0;points=[];" parent="8eAeLmn8yFaLi3UXi1aJ-100" vertex="1" connectable="0">
          <mxGeometry x="-0.3322" y="-3" relative="1" as="geometry">
            <mxPoint as="offset" />
          </mxGeometry>
        </mxCell>
        <mxCell id="8eAeLmn8yFaLi3UXi1aJ-114" style="edgeStyle=orthogonalEdgeStyle;rounded=0;orthogonalLoop=1;jettySize=auto;html=1;entryX=0;entryY=0.5;entryDx=0;entryDy=0;" parent="1" source="8eAeLmn8yFaLi3UXi1aJ-106" target="8eAeLmn8yFaLi3UXi1aJ-92" edge="1">
          <mxGeometry relative="1" as="geometry">
            <Array as="points">
              <mxPoint x="1070" y="1030" />
              <mxPoint x="880" y="1030" />
            </Array>
          </mxGeometry>
        </mxCell>
        <mxCell id="8eAeLmn8yFaLi3UXi1aJ-117" style="edgeStyle=orthogonalEdgeStyle;rounded=0;orthogonalLoop=1;jettySize=auto;html=1;entryX=1;entryY=0.75;entryDx=0;entryDy=0;" parent="1" source="8eAeLmn8yFaLi3UXi1aJ-110" target="8eAeLmn8yFaLi3UXi1aJ-17" edge="1">
          <mxGeometry relative="1" as="geometry" />
        </mxCell>
        <mxCell id="8eAeLmn8yFaLi3UXi1aJ-118" style="edgeStyle=orthogonalEdgeStyle;rounded=0;orthogonalLoop=1;jettySize=auto;html=1;entryX=1;entryY=0.75;entryDx=0;entryDy=0;" parent="1" source="8eAeLmn8yFaLi3UXi1aJ-112" target="8eAeLmn8yFaLi3UXi1aJ-17" edge="1">
          <mxGeometry relative="1" as="geometry" />
        </mxCell>
        <mxCell id="8eAeLmn8yFaLi3UXi1aJ-123" style="edgeStyle=orthogonalEdgeStyle;rounded=0;orthogonalLoop=1;jettySize=auto;html=1;entryX=0.25;entryY=1;entryDx=0;entryDy=0;startArrow=classic;startFill=1;" parent="1" source="8eAeLmn8yFaLi3UXi1aJ-122" target="8eAeLmn8yFaLi3UXi1aJ-18" edge="1">
          <mxGeometry relative="1" as="geometry" />
        </mxCell>
        <mxCell id="8eAeLmn8yFaLi3UXi1aJ-122" value="BlockViewer" style="shape=umlActor;verticalLabelPosition=bottom;verticalAlign=top;html=1;outlineConnect=0;" parent="1" vertex="1">
          <mxGeometry x="270" y="990" width="30" height="60" as="geometry" />
        </mxCell>
        <mxCell id="8eAeLmn8yFaLi3UXi1aJ-124" value="&lt;h1 style=&quot;margin-top: 0px;&quot;&gt;NOTICE:&lt;/h1&gt;&lt;p&gt;(1) Check Aurora Price ...&lt;/p&gt;" style="text;html=1;whiteSpace=wrap;overflow=hidden;rounded=0;" parent="1" vertex="1">
          <mxGeometry x="1440" y="700" width="150" height="120" as="geometry" />
        </mxCell>
        <mxCell id="8eAeLmn8yFaLi3UXi1aJ-125" style="edgeStyle=orthogonalEdgeStyle;rounded=0;orthogonalLoop=1;jettySize=auto;html=1;entryX=1;entryY=0;entryDx=0;entryDy=15;entryPerimeter=0;dashed=1;startArrow=oval;startFill=1;endArrow=oval;endFill=1;" parent="1" source="8eAeLmn8yFaLi3UXi1aJ-124" target="8eAeLmn8yFaLi3UXi1aJ-102" edge="1">
          <mxGeometry relative="1" as="geometry">
            <Array as="points">
              <mxPoint x="1330" y="760" />
              <mxPoint x="1330" y="964" />
            </Array>
          </mxGeometry>
        </mxCell>
        <mxCell id="8eAeLmn8yFaLi3UXi1aJ-126" value="VM Backup" style="shape=cylinder3;whiteSpace=wrap;html=1;boundedLbl=1;backgroundOutline=1;size=15;" parent="1" vertex="1">
          <mxGeometry x="1420" y="959" width="60" height="80" as="geometry" />
        </mxCell>
        <mxCell id="8eAeLmn8yFaLi3UXi1aJ-127" style="edgeStyle=orthogonalEdgeStyle;rounded=0;orthogonalLoop=1;jettySize=auto;html=1;entryX=0;entryY=0.5;entryDx=0;entryDy=0;entryPerimeter=0;dashed=1;exitX=1;exitY=0.5;exitDx=0;exitDy=0;" parent="1" source="8eAeLmn8yFaLi3UXi1aJ-95" target="8eAeLmn8yFaLi3UXi1aJ-126" edge="1">
          <mxGeometry relative="1" as="geometry" />
        </mxCell>
        <mxCell id="8eAeLmn8yFaLi3UXi1aJ-128" value="VM Backup" style="shape=cylinder3;whiteSpace=wrap;html=1;boundedLbl=1;backgroundOutline=1;size=15;" parent="1" vertex="1">
          <mxGeometry x="1390" y="540" width="60" height="80" as="geometry" />
        </mxCell>
        <mxCell id="8eAeLmn8yFaLi3UXi1aJ-129" style="edgeStyle=orthogonalEdgeStyle;rounded=0;orthogonalLoop=1;jettySize=auto;html=1;entryX=0;entryY=0.5;entryDx=0;entryDy=0;entryPerimeter=0;dashed=1;" parent="1" source="8eAeLmn8yFaLi3UXi1aJ-83" target="8eAeLmn8yFaLi3UXi1aJ-128" edge="1">
          <mxGeometry relative="1" as="geometry" />
        </mxCell>
        <mxCell id="8eAeLmn8yFaLi3UXi1aJ-134" style="edgeStyle=orthogonalEdgeStyle;rounded=0;orthogonalLoop=1;jettySize=auto;html=1;entryX=0.25;entryY=0;entryDx=0;entryDy=0;dashed=1;startArrow=oval;startFill=1;endArrow=oval;endFill=1;" parent="1" source="8eAeLmn8yFaLi3UXi1aJ-133" target="8eAeLmn8yFaLi3UXi1aJ-1" edge="1">
          <mxGeometry relative="1" as="geometry" />
        </mxCell>
        <mxCell id="8eAeLmn8yFaLi3UXi1aJ-133" value="Bitwarden" style="shape=process;whiteSpace=wrap;html=1;backgroundOutline=1;" parent="1" vertex="1">
          <mxGeometry x="70" y="-80" width="120" height="60" as="geometry" />
        </mxCell>
        <mxCell id="8eAeLmn8yFaLi3UXi1aJ-136" value="&lt;h1 style=&quot;margin-top: 0px;&quot;&gt;NOTICE:&lt;/h1&gt;&lt;p&gt;(1) Need to calculate $5к+ -&amp;gt; $10к per m&lt;/p&gt;" style="text;html=1;whiteSpace=wrap;overflow=hidden;rounded=0;" parent="1" vertex="1">
          <mxGeometry x="60" y="-280" width="240" height="80" as="geometry" />
        </mxCell>
      </root>
    </mxGraphModel>
  </diagram>
</mxfile>
